<svg id="图层_1" data-name="图层 1" xmlns="http://www.w3.org/2000/svg" viewBox="0 0 164.53 163.56"><defs><style>.cls-1{fill:#fff;stroke:#000;stroke-miterlimit:10;}</style></defs><title>未标题-1</title><path class="cls-1" d="M187.71,282c5.69-20.83,18.51-31.49,35.87-41.09,8.13-5.85-22.87-25.54-42.9-8.38S181.91,292,187.71,282Z" transform="translate(-171.76 -210.01)"/><path class="cls-1" d="M326.66,263c-10.79-18.7-25.89-25.76-45.12-30.64-9.35-3.59,15.63-30.5,39.37-19S334.8,271.13,326.66,263Z" transform="translate(-171.76 -210.01)"/><ellipse class="cls-1" cx="90.53" cy="94.24" rx="73.22" ry="68.82"/><path class="cls-1" d="M253.67,305.55a20.88,20.88,0,0,1-21,20.78c-11.59,0-14.58-8.6-16.14-15.22-2.63-11.17,11.09-26.34,22.68-26.34S253.67,294.07,253.67,305.55Z" transform="translate(-171.76 -210.01)"/><path class="cls-1" d="M271,304.32a20.87,20.87,0,0,0,23.36,18.05c11.51-1.41,13.42-10.31,14.16-17.06,1.25-11.41-14.22-24.8-25.72-23.38S269.56,292.93,271,304.32Z" transform="translate(-171.76 -210.01)"/><circle class="cls-1" cx="90.53" cy="116.31" r="4.72"/><circle class="cls-1" cx="66.35" cy="95.53" r="4.72"/><circle class="cls-1" cx="117.5" cy="90.82" r="4.72"/></svg>