<svg id="图层_1" data-name="图层 1" xmlns="http://www.w3.org/2000/svg" viewBox="0 0 179.57 186.3"><defs><style>.cls-1{fill:none;stroke:#000;stroke-miterlimit:10;}</style></defs><title>star</title><path class="cls-1" d="M319.43,307.15l.09,38.21a3.48,3.48,0,0,1-5.13,3.08l-44.32-23.72a3.49,3.49,0,0,1,.56-6.39l44.23-14.49A3.48,3.48,0,0,1,319.43,307.15Z" transform="translate(-256.73 -245.94)"/><path class="cls-1" d="M365.52,365.38l-32.3,44.78a3.49,3.49,0,0,1-6.31-1.77l-3.63-48.08a3.5,3.5,0,0,1,3.8-3.74l35.93,3.3A3.48,3.48,0,0,1,365.52,365.38Z" transform="translate(-256.73 -245.94)"/><path class="cls-1" d="M414.18,284.47l-9.28,24.87a3.48,3.48,0,0,1-5.66,1.32l-19.61-18.48a3.49,3.49,0,0,1,1.64-5.94l28.89-6.4A3.49,3.49,0,0,1,414.18,284.47Z" transform="translate(-256.73 -245.94)"/><path class="cls-1" d="M431.61,371.55,380,361.1a3.49,3.49,0,0,1-2.12-5.49l22.25-30.3a3.49,3.49,0,0,1,5.64,0l29.36,40.76A3.49,3.49,0,0,1,431.61,371.55Z" transform="translate(-256.73 -245.94)"/><path class="cls-1" d="M363.77,286.49,328,295.84a3.49,3.49,0,0,1-4.37-3.5l1.47-42.52a3.49,3.49,0,0,1,5.91-2.39l34.33,33.17A3.49,3.49,0,0,1,363.77,286.49Z" transform="translate(-256.73 -245.94)"/><path class="cls-1" d="M396.31,320.89l-23.83,32.46a5.23,5.23,0,0,1-4.7,2.12l-38.43-3.53a5.23,5.23,0,0,1-4.76-5.19l-.09-40a5.22,5.22,0,0,1,3.91-5.08L368,291.29a5.23,5.23,0,0,1,4.91,1.25L395.68,314A5.21,5.21,0,0,1,396.31,320.89Z" transform="translate(-256.73 -245.94)"/><path class="cls-1" d="M371.25,373.46s8.47,33.11,1.78,49.5c9.07-9,8.92-17.5,8.92-17.5s10.65,8.62,13.37,22.63C396.63,401.44,371.25,373.46,371.25,373.46Z" transform="translate(-256.73 -245.94)"/><path class="cls-1" d="M318.21,356.57s-27.11,37.44-24,61.3c-9.92-15.75-6-26.35-6-26.35s-19.89,5.62-30.05,21.89C267.6,379.28,318.21,356.57,318.21,356.57Z" transform="translate(-256.73 -245.94)"/></svg>